<?xml version="1.0" encoding="utf-8"?>
<svg version="1.1" id="svg2" width="2666.6667" height="2666.6667" viewBox="435.009 300.931 1796.648 2064.804" xmlns="http://www.w3.org/2000/svg">
  <g id="g10" transform="matrix(1.3333333,0,0,-1.3333333,0,2666.6667)">
    <g id="g12" transform="scale(0.1)">
      <path d="M 3794.27,2800 H 16205.7 c -0.2,1896.6 -0.5,6268.2 -0.7,9908.1 l -0.3,4491.9 H 3794.27 Z M 16445.7,2320 H 3554.27 c -132.55,0 -240,107.5 -240,240 v 14880 c 0,132.6 107.45,240 240,240 H 16444.7 c 132.5,0 240,-107.4 240,-240 l 0.3,-4731.8 c 0.2,-3803.4 0.5,-8405.4 0.7,-10148.2 0,-63.6 -25.3,-124.7 -70.3,-169.7 -45,-45 -106,-70.3 -169.7,-70.3" style="fill:#000000;fill-opacity:1;fill-rule:nonzero;stroke:none" id="path14"/>
      <path d="M 14578.5,9894.9 H 5416.8 c -132.55,0 -240,107.4 -240,240 0,132.5 107.45,240 240,240 h 9161.7 c 132.6,0 240,-107.5 240,-240 0,-132.6 -107.4,-240 -240,-240" style="fill:#000000;fill-opacity:1;fill-rule:nonzero;stroke:none" id="path16"/>
      <path d="M 8366.11,8084.5 H 5416.76 c -132.55,0 -240,107.5 -240,240 0,132.6 107.45,240 240,240 h 2949.35 c 132.55,0 240,-107.4 240,-240 0,-132.5 -107.45,-240 -240,-240" style="fill:#000000;fill-opacity:1;fill-rule:nonzero;stroke:none" id="path18"/>
      <path d="M 14578.5,8084.5 H 9157.81 c -132.55,0 -240,107.5 -240,240 0,132.6 107.45,240 240,240 h 5420.69 c 132.6,0 240,-107.4 240,-240 0,-132.5 -107.4,-240 -240,-240" style="fill:#000000;fill-opacity:1;fill-rule:nonzero;stroke:none" id="path20"/>
      <path d="m 7434.66,6274.2 h -2017.9 c -132.55,0 -240,107.4 -240,240 0,132.5 107.45,240 240,240 h 2017.9 c 132.55,0 240,-107.5 240,-240 0,-132.6 -107.45,-240 -240,-240" style="fill:#000000;fill-opacity:1;fill-rule:nonzero;stroke:none" id="path22"/>
      <path d="M 14578.5,6274.1 H 8319.53 c -132.55,0 -240,107.5 -240,240 0,132.6 107.45,240 240,240 h 6258.97 c 132.6,0 240,-107.4 240,-240 0,-132.5 -107.4,-240 -240,-240" style="fill:#000000;fill-opacity:1;fill-rule:nonzero;stroke:none" id="path24"/>
      <path d="M 10911.7,4463.8 H 5416.8 c -132.55,0 -240,107.4 -240,240 0,132.5 107.45,240 240,240 h 5494.9 c 132.6,0 240,-107.5 240,-240 0,-132.6 -107.4,-240 -240,-240" style="fill:#000000;fill-opacity:1;fill-rule:nonzero;stroke:none" id="path26"/>
      <path d="m 14578.5,4463.8 h -2779.4 c -132.6,0 -240,107.4 -240,240 0,132.5 107.4,240 240,240 h 2779.4 c 132.6,0 240,-107.5 240,-240 0,-132.6 -107.4,-240 -240,-240" style="fill:#000000;fill-opacity:1;fill-rule:nonzero;stroke:none" id="path28"/>
      <path d="m 14583.2,14905.8 h -4303.8 c -132.6,0 -240,107.5 -240,240 0,132.6 107.4,240 240,240 h 4303.8 c 132.6,0 240,-107.4 240,-240 0,-132.5 -107.4,-240 -240,-240" style="fill:#000000;fill-opacity:1;fill-rule:nonzero;stroke:none" id="path30"/>
      <path d="m 14583.2,13306.7 h -4303.8 c -132.6,0 -240,107.5 -240,240 0,132.6 107.4,240 240,240 h 4303.8 c 132.6,0 240,-107.4 240,-240 0,-132.5 -107.4,-240 -240,-240" style="fill:#000000;fill-opacity:1;fill-rule:nonzero;stroke:none" id="path32"/>
      <path d="m 14583.2,11707.6 h -4303.8 c -132.6,0 -240,107.4 -240,240 0,132.5 107.4,240 240,240 h 4303.8 c 132.6,0 240,-107.5 240,-240 0,-132.6 -107.4,-240 -240,-240" style="fill:#000000;fill-opacity:1;fill-rule:nonzero;stroke:none" id="path34"/>
      <path d="m 5798.21,11931.1 h 2736.08 v 62.9 c 0,754.3 -613.7,1368 -1368.04,1368 -754.34,0 -1368.04,-613.7 -1368.04,-1368 z m 2976.08,-480 H 5558.21 c -132.55,0 -240,107.4 -240,240 v 302.9 c 0,1019 829.03,1848 1848.04,1848 1019.01,0 1848.04,-829 1848.04,-1848 v -302.9 c 0,-132.6 -107.45,-240 -240,-240" style="fill:#000000;fill-opacity:1;fill-rule:nonzero;stroke:none" id="path36"/>
      <path d="m 7166.25,15162.4 c -364.01,0 -660.15,-296.2 -660.15,-660.2 0,-364 296.14,-660.2 660.15,-660.2 364.01,0 660.16,296.2 660.16,660.2 0,364 -296.15,660.2 -660.16,660.2 z m 0,-1800.4 c -628.68,0 -1140.15,511.5 -1140.15,1140.2 0,628.7 511.47,1140.2 1140.15,1140.2 628.69,0 1140.16,-511.5 1140.16,-1140.2 0,-628.7 -511.47,-1140.2 -1140.16,-1140.2" style="fill:#000000;fill-opacity:1;fill-rule:nonzero;stroke:none" id="path38"/>
    </g>
  </g>
</svg>